inDegrees=yes
name=ik_S57_A10_T02
DataType=double
version=3
OpenSimVersion=4.3-2021-08-27-4bc7ad9
endheader
time	pelvis_tilt	pelvis_list	pelvis_rotation	pelvis_tx	pelvis_ty	pelvis_tz	hip_flexion_r	hip_adduction_r	hip_rotation_r	knee_angle_r	knee_angle_r_beta	ankle_angle_r	subtalar_angle_r	mtp_angle_r	hip_flexion_l	hip_adduction_l	hip_rotation_l	knee_angle_l	knee_angle_l_beta	ankle_angle_l	subtalar_angle_l	mtp_angle_l	lumbar_extension	lumbar_bending	lumbar_rotation	arm_flex_r	arm_add_r	arm_rot_r	elbow_flex_r	pro_sup_r	wrist_flex_r	wrist_dev_r	arm_flex_l	arm_add_l	arm_rot_l	elbow_flex_l	pro_sup_l	wrist_flex_l	wrist_dev_l
8.979999999999897	-2.003778072523972	-1.362837398549958	22.70024627772067	0	0.9399999999999999	0	44.85644471140994	-10.00045753400401	-10.00126128159098	55.03732214824402	0.9605824829676567	0	0	0	44.85644471140994	-10.00045753400401	-10.00126128159098	55.03732214824402	0.9605824829676567	0	0	0	-2.403058984591898	-0.561267657641678	-1.406878794199981	21.36376687297709	8.011774217721689	-11.21087650446348	8.442738955452832	94.16746765488485	0	0	19.93110523633037	-1.896501108788109	-2.449499994859411	12.08752005247549	94.46063192128875	0	0
8.999999999999897	-2.001638853228723	-1.365984444591723	22.76678500788435	0	0.9399999999999999	0	44.85654302660792	-10.0004564376958	-10.00125934390946	55.03730513539724	0.9605821860374654	0	0	0	44.85654302660792	-10.0004564376958	-10.00125934390946	55.03730513539724	0.9605821860374654	0	0	0	-2.406234557864062	-0.5551188597400911	-1.471061660476857	20.73149927985079	7.943118060979383	-10.71389151446296	8.050247472224687	93.62022905106393	0	0	19.67427814808653	-1.696836232731506	-2.703715303523663	10.03238231965253	94.92980466991736	0	0
9.019999999999897	-2.083413904974106	-1.424171454987451	22.76711681745466	0	0.9399999999999999	0	44.85659733376082	-10.00045583493405	-10.00125827650952	55.03729571251213	0.960582021577095	0	0	0	44.85659733376082	-10.00045583493405	-10.00125827650952	55.03729571251213	0.960582021577095	0	0	0	-2.504846703222687	-0.5754622003572808	-1.500210301902916	20.67466888887228	7.959026245657403	-10.4544244726107	7.312417887481522	93.11648055760008	0	0	19.60181321194426	-1.545520005808377	-2.795078658998265	8.957309057112226	95.11148524233381	0	0
9.039999999999896	-2.08810632039682	-1.424045507995465	22.7560982566525	0	0.9399999999999999	0	44.85666723528406	-10.00045506073368	-10.0012569043818	55.03728356603202	0.9605818095810247	0	0	0	44.85666723528406	-10.00045506073368	-10.0012569043818	55.03728356603202	0.9605818095810247	0	0	0	-2.508130749344007	-0.5757255778813946	-1.48059824115642	20.70618333128326	7.931220130008858	-10.48329138097083	6.329352153027369	92.73287511936124	0	0	19.40417448168104	-1.325880728561442	-2.939911605466302	7.749256004269747	95.47857489707125	0	0
9.059999999999896	-2.135818750102667	-1.408431477112812	22.67409922576222	0	0.9399999999999999	0	44.85672309686299	-10.0004544419015	-10.00125580754896	55.03727386746598	0.9605816403091145	0	0	0	44.85672309686299	-10.0004544419015	-10.00125580754896	55.03727386746598	0.9605816403091145	0	0	0	-2.545827263369022	-0.5432625105352124	-1.491653166727892	20.75505884733284	7.857541930353722	-10.42719108669943	5.405848802094596	92.35566715853543	0	0	19.29805142909209	-1.109237672134814	-3.07546678197639	7.262140376562927	95.6191576577409	0	0
9.079999999999895	-2.137560182392942	-1.409311949752281	22.64273939574418	0	0.9399999999999999	0	44.8567994260702	-10.00045359620141	-10.00125430836977	55.0372606311174	0.9605814092912509	0	0	0	44.8567994260702	-10.00045359620141	-10.00125430836977	55.0372606311174	0.9605814092912509	0	0	0	-2.546453403584851	-0.5466344710941551	-1.454711520930246	20.76996805772262	7.798157091577264	-10.4697171701351	4.508624016873602	92.19854815072812	0	0	19.10155847860677	-0.9576434102676545	-2.989920603828524	6.219275426642343	95.79377454427352	0	0
9.099999999999895	-2.285754924483234	-1.559399860557831	22.95377024401733	0	0.9399999999999999	0	44.8568730254697	-10.00045278127336	-10.00125286320346	55.03724786986023	0.9605811865652966	0	0	0	44.8568730254697	-10.00045278127336	-10.00125286320346	55.03724786986023	0.9605811865652966	0	0	0	-2.741834198389618	-0.6260213064452261	-1.479560755329324	20.2250946382336	7.844168627384344	-9.240458302944216	4.931555952652444	90.45631851206394	0	0	19.21948666578063	-0.916415580417246	-2.357905209731932	5.9672937344038	95.72228874935027	0	0
9.119999999999894	-2.283942578036131	-1.559088063265598	22.90775201779864	0	0.9399999999999999	0	44.85695596479305	-10.00045186434255	-10.00125123587133	55.0372334871515	0.9605809355396739	0	0	0	44.85695596479305	-10.00045186434255	-10.00125123587133	55.0372334871515	0.9605809355396739	0	0	0	-2.738734588050488	-0.6294000560692299	-1.432892082026086	19.91803163144577	7.801673621636696	-9.012134696655332	4.114315133676143	89.94521401261659	0	0	18.96982605237452	-0.7941366214374229	-2.070741632429096	4.724347551804915	96.17257728680562	0	0
9.139999999999894	-2.492490132137324	-1.717575975851986	22.96839504756316	0	0.9399999999999999	0	44.857004567716	-10.00045132813749	-10.00125028338687	55.03722504988509	0.9605807882815952	0	0	0	44.857004567716	-10.00045132813749	-10.00125028338687	55.03722504988509	0.9605807882815952	0	0	0	-2.989672558359287	-0.7009706959329584	-1.317969313443653	20.17590749558379	7.837593979739584	-9.231092802863225	3.952512402181676	89.90669494501029	0	0	19.2637720706295	-0.7521596082310104	-1.485740147816313	4.537239229022581	96.05619698770745	0	0
9.159999999999894	-2.585896691883222	-1.771134302743306	22.94486337574238	0	0.9399999999999999	0	44.85704847775632	-10.00045084431192	-10.0012494234672	55.03721742333185	0.9605806551731305	0	0	0	44.85704847775632	-10.00045084431192	-10.0012494234672	55.03721742333185	0.9605806551731305	0	0	0	-3.094947007172369	-0.7175241635562657	-1.257407855022956	20.39228484731903	7.856498379329267	-9.301910017159575	3.514852822389826	89.84034575530407	0	0	19.2963558152301	-0.6395764890868122	-1.11121325330879	3.577352064294203	96.10581623510355	0	0
9.179999999999893	-2.660853838244232	-1.847421348430042	22.97802936530893	0	0.9399999999999999	0	44.85709097228536	-10.00045037807029	-10.00124859354249	55.03721001586204	0.9605805258883933	0	0	0	44.85709097228536	-10.00045037807029	-10.00124859354249	55.03721001586204	0.9605805258883933	0	0	0	-3.189020833526568	-0.7688343233688028	-1.104267889077238	20.37338006768847	7.877185796659917	-9.339156849960984	3.400289400754614	89.7224694701804	0	0	19.23977527663221	-0.4561394531304537	-0.2345655276956721	3.54651576916832	95.66903215030729	0	0
9.199999999999893	-2.725809316626097	-1.914340201637141	23.15784498197806	0	0.9399999999999999	0	44.85716490388413	-10.00044956249834	-10.00124714422268	55.03719720423114	0.9605803022832514	0	0	0	44.85716490388413	-10.00044956249834	-10.00124714422268	55.03719720423114	0.9605803022832514	0	0	0	-3.274413108973596	-0.8061592585115405	-1.086248476826991	20.1698323119318	7.942881619154331	-8.866242309657427	3.869793589284633	89.07289659160878	0	0	19.4179336262129	-0.4813032022852873	-0.03190981502236555	3.088030141914019	95.83893857223866	0	0
